#!OML:ASF I:\Actors\actors\Patient Classification 2\Patient 1\Session 1\actor1.ASF
:FULLY-SPECIFIED
:DEGREES
605
root -0.478384 18.5822 6.05094 -4.68324 -1.62105 -2.9988
lowerback 2.53332 1.16528 -1.21014
upperback -1.19339 1.50542 -0.192404
thorax -2.67094 0.77004 0.407833
lowerneck -9.65349 -2.80683 -1.18196
upperneck 22.0166 -5.11693 6.17582
head 8.6394 -1.90085 1.74991
rclavicle -2.68359e-014 1.90833e-014
rhumerus -72.234 -1.37654 -93.6607
rradius 86.685
rwrist -20.3641
rhand -12.7805 -49.0561
rfingers 7.12502
rthumb 13.3047 -78.6114
lclavicle -2.68359e-014 1.90833e-014
lhumerus -46.7648 14.0696 77.0253
lradius 40.4969
lwrist -3.15759
lhand -11.2031 -22.7198
lfingers 7.12502
lthumb 14.8248 6.72986
rfemur 14.8401 4.65422 17.5798
rtibia 2.06736e-014
rfoot -20.6625 -12.4343
rtoes -6.0662
lfemur 0.921153 -8.86118 -13.9569
ltibia 23.9954
lfoot -24.4149 12.626
ltoes -56.1849
606
root -0.47545 18.5822 6.04404 -4.71011 -1.49304 -2.89841
lowerback 2.50886 1.14062 -1.25627
upperback -1.13687 1.47091 -0.223765
thorax -2.59879 0.7528 0.404474
lowerneck -9.73087 -2.82011 -1.05322
upperneck 22.1468 -5.13031 6.00789
head 8.69103 -1.90866 1.6698
rclavicle 4.37326e-015 5.56597e-015
rhumerus -71.9972 -1.23446 -93.672
rradius 86.687
rwrist -20.6087
rhand -12.7491 -49.3933
rfingers 7.12502
rthumb 13.335 -78.9466
lclavicle 4.37326e-015 5.56597e-015
lhumerus -46.5506 13.9095 77.2042
lradius 40.6044
lwrist -2.96417
lhand -11.2343 -22.7244
lfingers 7.12502
lthumb 14.7948 6.72746
rfemur 14.8716 4.54213 17.4419
rtibia -7.95139e-015
rfoot -20.6818 -12.4035
rtoes -6.00286
lfemur 0.88768 -8.8058 -14.0542
ltibia 23.995
lfoot -24.3303 12.4947
ltoes -56.2403
607
root -0.473093 18.5818 6.03866 -4.73056 -1.38105 -2.86751
lowerback 2.47739 1.13555 -1.26521
upperback -1.10403 1.4648 -0.21546
thorax -2.54765 0.749618 0.419424
lowerneck -9.80411 -2.83894 -0.995053
upperneck 22.3052 -5.14931 5.88138
head 8.7546 -1.92019 1.61509
rclavicle -6.4605e-016 -1.19271e-014
rhumerus -71.8072 -1.11158 -93.6544
rradius 86.6836
rwrist -20.8411
rhand -12.9339 -49.992
rfingers 7.12502
rthumb 13.157 -79.5569
lclavicle -6.4605e-016 -1.19271e-014
lhumerus -46.3878 13.7007 77.4358
lradius 40.7742
lwrist -2.7098
lhand -11.2053 -22.5634
lfingers 7.12502
lthumb 14.8228 6.88644
rfemur 14.8962 4.43842 17.3826
rtibia 6.36111e-015
rfoot -20.6834 -12.364
rtoes -5.70811
lfemur 0.86371 -8.82042 -14.0869
ltibia 24.0062
lfoot -24.3041 12.3861
ltoes -56.2141
608
root -0.472177 18.5825 6.03332 -4.74431 -1.28281 -2.91619
lowerback 2.45355 1.14028 -1.20161
upperback -1.10117 1.47454 -0.1822
thorax -2.53069 0.753644 0.418041
lowerneck -9.81088 -2.86225 -0.998534
upperneck 22.4699 -5.17006 5.78818
head 8.81045 -1.93555 1.58268
rclavicle -3.13086e-015 -4.77083e-015
rhumerus -71.6669 -0.985801 -93.6546
rradius 86.6551
rwrist -20.9773
rhand -13.3141 -50.2867
rfingers 7.12502
rthumb 12.7904 -79.8749
lclavicle -3.13086e-015 -4.77083e-015
lhumerus -46.2378 13.496 77.6737
lradius 40.9412
lwrist -2.4995
lhand -11.2238 -22.5388
lfingers 7.12502
lthumb 14.8049 6.91233
rfemur 14.911 4.33867 17.4175
rtibia 7.95139e-015
rfoot -20.6675 -12.3405
rtoes -5.52948
lfemur 0.832812 -8.86849 -14.0322
ltibia 24.0267
lfoot -24.2803 12.3222
ltoes -56.1716
609
root -0.471382 18.5832 6.02741 -4.79212 -1.14717 -2.93415
lowerback 2.4536 1.13636 -1.15862
upperback -1.07793 1.47151 -0.160773
thorax -2.50621 0.751425 0.416415
lowerneck -9.82423 -2.88877 -1.07198
upperneck 22.6362 -5.1974 5.76118
head 8.87207 -1.95304 1.58368
rclavicle -2.44505e-014 1.59028e-015
rhumerus -71.5048 -0.828916 -93.6688
rradius 86.6167
rwrist -21.0736
rhand -13.4352 -50.1247
rfingers 7.12502
rthumb 12.6737 -79.7201
lclavicle -2.44505e-014 1.59028e-015
lhumerus -46.0111 13.2904 77.9529
lradius 41.0632
lwrist -2.25324
lhand -11.3895 -22.6868
lfingers 7.12502
lthumb 14.6453 6.77602
rfemur 14.9678 4.20645 17.418
rtibia -1.59028e-014
rfoot -20.6408 -12.3385
rtoes -5.76358
lfemur 0.816401 -8.9211 -14.0155
ltibia 24.0516
lfoot -24.1935 12.2833
ltoes -56.183
610
root -0.470925 18.583 6.0216 -4.88035 -0.978732 -2.88469
lowerback 2.4839 1.13367 -1.20409
upperback -1.03334 1.46694 -0.130604
thorax -2.4793 0.74983 0.472957
lowerneck -9.83778 -2.94506 -1.26581
upperneck 22.7803 -5.26272 5.82207
head 8.9333 -1.99015 1.63066
rclavicle -3.04141e-014 2.38542e-015
rhumerus -71.3525 -0.65185 -93.6568
rradius 86.6057
rwrist -21.1921
rhand -13.3478 -50.5098
rfingers 7.12502
rthumb 12.758 -80.1001
lclavicle -3.04141e-014 2.38542e-015
lhumerus -45.7912 13.0653 78.3188
lradius 41.2408
lwrist -1.93771
lhand -11.5678 -22.5621
lfingers 7.12502
lthumb 14.4735 6.9131
rfemur 15.0711 4.05039 17.3452
rtibia 2.54444e-014
rfoot -20.611 -12.3477
rtoes -6.04994
lfemur 0.834953 -9.0012 -14.0839
ltibia 24.0804
lfoot -24.1496 12.2336
ltoes -56.1826
611
root -0.471829 18.5824 6.017 -4.97414 -0.809606 -2.86051
lowerback 2.52035 1.14103 -1.23704
upperback -1.01085 1.47608 -0.0944249
thorax -2.47866 0.755115 0.527582
lowerneck -9.75612 -3.02944 -1.44953
upperneck 22.8982 -5.36988 5.89317
head 8.96986 -2.04762 1.67606
rclavicle -2.57426e-014 1.19271e-014
rhumerus -71.3036 -0.519298 -93.6853
rradius 86.6353
rwrist -21.2735
rhand -13.3562 -51.0167
rfingers 7.12502
rthumb 12.7498 -80.6074
lclavicle -2.57426e-014 1.19271e-014
lhumerus -45.6598 12.8378 78.6756
lradius 41.4907
lwrist -1.67144
lhand -11.5977 -22.468
lfingers 7.12502
lthumb 14.4447 7.00931
rfemur 15.1857 3.89069 17.304
rtibia -1.90833e-014
rfoot -20.6086 -12.3257
rtoes -5.9051
lfemur 0.857325 -9.03992 -14.1132
ltibia 24.1132
lfoot -24.1279 12.1312
ltoes -56.2492
612
root -0.473474 18.5824 6.01345 -5.01975 -0.627614 -2.85233
lowerback 2.50423 1.14417 -1.22699
upperback -1.01277 1.48038 -0.11394
thorax -2.47086 0.75691 0.502064
lowerneck -9.6434 -3.11587 -1.44122
upperneck 23.014 -5.5012 5.89802
head 8.99441 -2.1076 1.66427
rclavicle 3.43897e-014 -8.74653e-015
rhumerus -71.3281 -0.46279 -93.8325
rradius 86.6781
rwrist -21.2715
rhand -13.3734 -50.9358
rfingers 7.12502
rthumb 12.7333 -80.5275
lclavicle 3.43897e-014 -8.74653e-015
lhumerus -45.5261 12.5997 78.9482
lradius 41.7442
lwrist -1.40384
lhand -11.545 -22.5936
lfingers 7.12502
lthumb 14.4955 6.88006
rfemur 15.2554 3.71365 17.2788
rtibia -1.27222e-014
rfoot -20.6034 -12.2827
rtoes -5.67653
lfemur 0.82242 -9.01276 -14.0975
ltibia 24.1454
lfoot -24.0538 11.9946
ltoes -56.364
613
root -0.475063 18.5822 6.01044 -5.03393 -0.415929 -2.84602
lowerback 2.45163 1.13139 -1.19924
upperback -1.01896 1.46407 -0.155285
thorax -2.44554 0.747916 0.445955
lowerneck -9.58641 -3.21428 -1.36165
upperneck 23.1617 -5.65107 5.84188
head 9.03757 -2.17459 1.61692
rclavicle -1.50579e-014 -3.97569e-015
rhumerus -71.3262 -0.410781 -94.0098
rradius 86.658
rwrist -21.2737
rhand -13.329 -50.7748
rfingers 7.12502
rthumb 12.7761 -80.3639
lclavicle -1.50579e-014 -3.97569e-015
lhumerus -45.3772 12.2615 79.2444
lradius 42.0394
lwrist -0.980565
lhand -11.5477 -22.5469
lfingers 7.12502
lthumb 14.4929 6.92698
rfemur 15.3003 3.5053 17.2516
rtibia 3.18055e-015
rfoot -20.5986 -12.2346
rtoes -5.5346
lfemur 0.75205 -8.98678 -14.0726
ltibia 24.1795
lfoot -23.969 11.8503
ltoes -56.3731
614
root -0.476476 18.5812 6.00681 -5.0805 -0.175937 -2.83329
lowerback 2.44135 1.12124 -1.18378
upperback -1.00842 1.45067 -0.182248
thorax -2.42758 0.740648 0.41064
lowerneck -9.64844 -3.34645 -1.39729
upperneck 23.4183 -5.8509 5.85218
head 9.14844 -2.26295 1.6047
rclavicle -2.28602e-015 5.56597e-015
rhumerus -71.2683 -0.353527 -94.1539
rradius 86.6109
rwrist -21.354
rhand -13.3686 -51.015
rfingers 7.12502
rthumb 12.7379 -80.6064
lclavicle -2.28602e-015 5.56597e-015
lhumerus -45.2281 11.8915 79.5903
lradius 42.374
lwrist -0.513283
lhand -11.5135 -22.5136
lfingers 7.12502
lthumb 14.5257 6.95792
rfemur 15.3842 3.27198 17.2128
rtibia 1.43125e-014
rfoot -20.5842 -12.2109
rtoes -5.49767
lfemur 0.714871 -8.99677 -14.066
ltibia 24.2147
lfoot -23.9113 11.6938
ltoes -56.3451
615
root -0.477588 18.58 6.00287 -5.18514 0.0366719 -2.79961
lowerback 2.45482 1.12774 -1.21938
upperback -0.943285 1.45837 -0.184936
thorax -2.36917 0.744496 0.428038
lowerneck -9.87084 -3.50855 -1.58288
upperneck 23.8531 -6.11005 5.99365
head 9.3645 -2.37059 1.65396
rclavicle 1.0635e-014 -4.77083e-015
rhumerus -71.1839 -0.278267 -94.2615
rradius 86.6307
rwrist -21.4545
rhand -13.4709 -51.3842
rfingers 7.12502
rthumb 12.6393 -80.9818
lclavicle 1.0635e-014 -4.77083e-015
lhumerus -45.0354 11.6557 79.9555
lradius 42.6799
lwrist -0.119279
lhand -11.4334 -22.6791
lfingers 7.12502
lthumb 14.6029 6.78683
rfemur 15.5222 3.07182 17.153
rtibia 1.59028e-015
rfoot -20.5777 -12.2032
rtoes -5.60539
lfemur 0.752799 -9.05406 -14.1022
ltibia 24.2476
lfoot -23.8868 11.5417
ltoes -56.2841
616
root -0.479429 18.5788 5.99946 -5.30619 0.219819 -2.77173
lowerback 2.4646 1.14571 -1.27794
upperback -0.855813 1.48125 -0.168946
thorax -2.28712 0.756145 0.47713
lowerneck -10.1238 -3.72958 -1.88381
upperneck 24.3982 -6.45754 6.2077
head 9.639 -2.51821 1.73729
rclavicle 6.4605e-016 -6.36111e-015
rhumerus -71.1026 -0.217745 -94.3214
rradius 86.6505
rwrist -21.4455
rhand -13.5586 -51.6091
rfingers 7.12502
rthumb 12.5547 -81.2119
lclavicle 6.4605e-016 -6.36111e-015
lhumerus -44.8399 11.3969 80.3712
lradius 42.9868
lwrist 0.310967
lhand -11.3047 -22.7404
lfingers 7.12502
lthumb 14.7269 6.71647
rfemur 15.6723 2.90066 17.1055
rtibia -3.33958e-014
rfoot -20.5719 -12.1962
rtoes -5.73727
lfemur 0.813586 -9.08445 -14.1309
ltibia 24.2803
lfoot -23.8143 11.3697
ltoes -56.2275
